<svg width="16" height="20" viewBox="0 0 16 20" xmlns="http://www.w3.org/2000/svg"><title>Icn24/ConfirmPass</title><desc>Created with Sketch.</desc><g fill-rule="nonzero" fill="#444"><path d="M14.5 7h-1.5v-2.5c0-2.481-2.519-4.494-5-4.494s-5 2.013-5 4.494v2.5h-1.5c-.827 0-1.5.673-1.5 1.5v10c0 .827.673 1.5 1.5 1.5h13c.827 0 1.5-.673 1.5-1.5v-10c0-.827-.673-1.5-1.5-1.5zm-10.5-2.5c0-1.93 2.07-3.501 4-3.501 1.93 0 4 1.571 4 3.501v2.5h-8v-2.5zm11 14c0 .276-.224.5-.5.5h-13c-.276 0-.5-.224-.5-.5v-10c0-.276.224-.5.5-.5h13c.276 0 .5.224.5.5v10zM6.182 16.999c-.116 0-.233-.043-.322-.128l-2.727-2.624c-.177-.171-.177-.448 0-.618.177-.171.465-.171.643 0l2.405 2.314 6.042-5.813c.177-.171.465-.171.643 0 .177.171.177.448 0 .618l-6.364 6.122c-.089.086-.205.128-.322.128h.002z"/></g></svg>