<svg width="14" height="20" viewBox="0 0 14 20" xmlns="http://www.w3.org/2000/svg"><title>Icn24/Electricity</title><desc>Created with Sketch.</desc><path d="M2.692 20c-.106 0-.212-.031-.305-.093-.214-.143-.293-.416-.187-.647l3.492-7.681h-5.154c-.218 0-.415-.128-.498-.325-.083-.197-.038-.423.116-.574l10.769-10.526c.183-.179.472-.205.686-.062.214.143.293.416.187.647l-3.492 7.681h5.154c.218 0 .415.128.498.325.083.197.038.423-.116.574l-10.769 10.526c-.104.102-.242.154-.381.154v.001zm-.854-9.473h4.682c.182 0 .352.091.451.24.099.149.114.338.041.501l-2.651 5.83 7.799-7.623h-4.682c-.182 0-.352-.091-.451-.24-.099-.149-.114-.338-.041-.501l2.651-5.83-7.799 7.623z" fill-rule="nonzero" fill="#D23938"/></svg>