<svg width="20" height="14" viewBox="0 0 20 14" xmlns="http://www.w3.org/2000/svg"><title>Icn24/Email</title><desc>Created with Sketch.</desc><path d="M18.421 0h-16.842c-.871 0-1.579.785-1.579 1.75v10.5c0 .965.708 1.75 1.579 1.75h16.842c.871 0 1.579-.785 1.579-1.75v-10.5c0-.965-.708-1.75-1.579-1.75zm.579 1.008l-8.383 6.021c-.323.193-.912.193-1.234 0l-8.383-6.021.097-.008h17.807l.096.008zm-.529 11.992h-16.941c-.292 0-.529-.224-.529-.5v-10.566l7.826 5.927c.329.207.752.311 1.174.311.422 0 .845-.104 1.174-.311l7.826-5.927v10.566c0 .276-.237.5-.529.5z" fill-rule="nonzero" fill="#444"/></svg>