<svg width="17" height="20" viewBox="0 0 17 20" xmlns="http://www.w3.org/2000/svg"><title>Icn24/fire</title><desc>Created with Sketch.</desc><path d="M12.905.207c-.154-.214-.449-.271-.672-.131-.223.14-.299.431-.172.663l.174.32c.442.939 1.201 3.171 1.243 5.551-.461-1-1.17-1.869-1.815-2.662-.982-1.205-1.829-2.245-1.668-3.378.021-.143-.022-.289-.117-.398-.095-.109-.233-.172-.378-.172-1.018 0-2.099.797-2.827 1.466-.928.852-1.815 1.974-2.499 3.159l-.281.514c.232-1.615.685-3.294 1.073-4.459.058-.175.038-.334-.062-.472-.094-.13-.245-.208-.406-.208-.185 0-.353.102-.44.263-3.008 5.514-4.06 7.795-4.06 11.737 0 2.149.807 4.139 2.271 5.604.755.755 1.658 1.345 2.685 1.752 1.078.428 2.27.645 3.544.645s2.466-.217 3.544-.645c1.026-.407 1.93-.997 2.685-1.752 1.465-1.465 2.271-3.455 2.271-5.604 0-3.902-1.062-6.226-3.873-11.394-.083-.178-.158-.313-.22-.399zm-4.405 18.793c-4.924 0-7.5-3.521-7.5-7 0-2.746.523-4.597 1.99-7.566-.424 2.458-.313 4.255.33 5.342.386.652.952 1.051 1.684 1.184.187.034.371.052.546.052 1.092 0 1.919-.664 2.269-1.82.209-.691.229-1.526.053-2.291l-.093-.342c1.088.652 1.847 1.69 2.114 2.953.366 1.729-.285 3.489-1.701 4.594-.191.149-.248.413-.134.628.114.215.363.317.594.243 2.478-.792 4.193-2.249 5.098-4.332.667-1.537.879-3.366.63-5.443 1.168 2.501 1.62 4.286 1.62 6.799 0 3.479-2.576 7-7.5 7v-.001zm-3.459-13.875c.625-1.084 1.467-2.149 2.309-2.923.593-.545 1.162-.924 1.634-1.097.101 1.264.981 2.343 1.904 3.475 1.636 2.008 3.182 3.905 1.073 7.111-.451.558-1.001 1.039-1.649 1.442.631-1.15.844-2.497.561-3.83-.212-1.001-.694-1.92-1.392-2.657-.747-.787-1.735-1.352-2.858-1.633-.236-.059-.48.06-.579.283-.099.223-.022.483.18.618.648.432.965 1.911.64 2.986-.223.736-.664 1.11-1.312 1.11-.115 0-.238-.012-.367-.035-.44-.081-.769-.313-1.004-.71l-.088-.165h.005c-.36-.848-.016-2.314.944-3.977l-.001.002z" fill-rule="nonzero" fill="#D23938"/></svg>