<svg width="221" height="1" viewBox="0 0 221 1" xmlns="http://www.w3.org/2000/svg"><title>line</title><desc>Created with Sketch.</desc><path d="M8 0h7v1h-7v-1zm11 0h7v1h-7v-1zm11 0h7v1h-7v-1zm11 0h7v1h-7v-1zm11 0h7v1h-7v-1zm11 0h7v1h-7v-1zm11 0h7v1h-7v-1zm11 0h7v1h-7v-1zm11 0h7v1h-7v-1zm11 0h7v1h-7v-1zm11 0h7v1h-7v-1zm11 0h7v1h-7v-1zm11 0h7v1h-7v-1zm11 0h7v1h-7v-1zm11 0h7v1h-7v-1zm11 0h7v1h-7v-1zm11 0h7v1h-7v-1zm11 0h7v1h-7v-1zm11 0h7v1h-7v-1zm11 0h4v1h-4v-1zm-217 0h4v1h-4v-1z" fill="#EBEDEF"/></svg>