<svg width="20" height="18" viewBox="0 0 20 18" xmlns="http://www.w3.org/2000/svg"><title>Icn24/Logout</title><desc>Created with Sketch.</desc><path d="M15.5 0c-2.481 0-4.5 2.019-4.5 4.5v2.5h-9.5c-.827 0-1.5.673-1.5 1.5v8c0 .827.673 1.5 1.5 1.5h12c.827 0 1.5-.673 1.5-1.5v-8c0-.827-.673-1.5-1.5-1.5h-1.5v-2.5c0-1.93 1.57-3.5 3.5-3.5s3.5 1.57 3.5 3.5v1c0 .276.224.5.5.5s.5-.224.5-.5v-1c0-2.481-2.019-4.5-4.5-4.5zm-2 8c.276 0 .5.224.5.5v8c0 .276-.224.5-.5.5h-12c-.276 0-.5-.224-.5-.5v-8c0-.276.224-.5.5-.5h12z" fill-rule="nonzero" fill="#444"/></svg>