<svg width="250" height="57" viewBox="0 0 250 57" xmlns="http://www.w3.org/2000/svg"><title>logo_red</title><desc>Created with Sketch.</desc><g fill="#D23938"><path d="M217.669 3.447c0 .802-.284 1.487-.853 2.053-.571.568-1.258.851-2.063.851-.792 0-1.472-.283-2.042-.851-.569-.566-.854-1.251-.854-2.053s.285-1.48.854-2.033c.569-.567 1.249-.851 2.042-.851.805 0 1.491.284 2.063.851.569.553.853 1.231.853 2.033z"/><path d="M26.106 28.787v-6.572h13.07c-.755-2.941-2.33-5.362-4.733-7.265-2.43-1.903-5.21-2.855-8.337-2.855-3.704 0-6.873 1.313-9.507 3.935-2.634 2.625-3.95 5.781-3.95 9.471 0 .54.036 1.064.092 1.581h.001c.196 1.812.832 3.628 1.723 5.16.575.964 1.28 1.876 2.133 2.73 2.634 2.624 5.802 3.934 9.507 3.934v6.616c-5.527 0-10.259-1.961-14.195-5.881-2.256-2.247-3.842-4.761-4.804-7.527h.028-.028c-.554-1.592-.9-3.267-1.028-5.032-.039-.522-.071-1.045-.071-1.581 0-5.506 1.968-10.219 5.904-14.14 3.935-3.92 8.667-5.882 14.194-5.882 5.529 0 10.262 1.962 14.197 5.882 3.935 3.92 5.904 8.634 5.904 14.14v3.286h-20.101zm.001-28.674c-14.077 0-25.488 11.366-25.488 25.387s11.411 25.387 25.488 25.387 25.488-11.366 25.488-25.387-11.411-25.387-25.488-25.387z"/><path d="M122.79 16.99c-2.844-2.852-6.274-4.28-10.292-4.283h-.012c-.242 0-.482.006-.719.017l-.186.012-.516.035-.32.035-.359.042-.411.064-.248.041-.477.096-.165.036-.525.133-.101.027-.558.169-.056.018-.574.205-.034.013-.57.234-.042.019-.539.252-.099.05-.46.242-.271.156-.267.157c-.785.479-1.538 1.04-2.26 1.686l-.016.044c-.176.161-.349.327-.52.499-2.844 2.835-4.269 6.255-4.269 10.261v2.534l-.041.114v11.481h4.846v-.032h.009v-14.097c0-2.685.954-4.976 2.857-6.873 1.924-1.896 4.222-2.844 6.895-2.845 2.673.001 4.971.949 6.895 2.845 1.904 1.897 2.857 4.187 2.857 6.873v14.097h4.815v-14.097c0-4.006-1.425-7.426-4.269-10.261"/><path d="M145.233 41.924c-4.086 0-7.586-1.45-10.495-4.347-2.909-2.898-4.365-6.383-4.365-10.453 0-4.071 1.455-7.555 4.365-10.453 2.909-2.898 6.409-4.348 10.495-4.348 4.086 0 7.584 1.45 10.493 4.348 2.909 2.898 4.367 6.382 4.367 10.453v2.429h-14.86v-4.859h9.66c-.556-2.174-1.722-3.964-3.498-5.371-1.798-1.407-3.853-2.11-6.162-2.11-2.739 0-5.081.971-7.028 2.909-1.947 1.939-2.921 4.273-2.921 7.001 0 2.728.974 5.062 2.921 7.001 1.947 1.939 4.29 2.908 7.028 2.908v4.891z"/><path d="M97.884 41.38h4.847v-9.368h-4.847z"/><path d="M122.243 41.349h4.815v-9.336h-4.815z"/><path d="M168.077 27.092c0-2.813.749-4.976 2.739-6.979 2.01-1.982 4.166-2.713 6.99-2.713v-4.884c-4.023 0-7.466 1.428-10.333 4.283-2.868 2.834-4.3 6.265-4.3 10.293v14.301h4.904v-14.301z"/><path d="M95.082 28.292v-1.168l-.01-.441c-.08-3.042-.99-5.749-2.73-8.122-.48-.655-1.019-1.285-1.625-1.889-2.909-2.898-6.408-4.348-10.495-4.348-4.086 0-7.584 1.45-10.493 4.348-.606.604-1.145 1.235-1.626 1.889-1.739 2.373-2.649 5.08-2.729 8.122l-.01.441c0 3.464 1.058 6.503 3.166 9.118l.065.082.441.515.119.135c.173.19.352.378.537.564l.036.039c2.909 2.898 6.407 4.347 10.493 4.347v-4.891c-2.739 0-5.081-.969-7.028-2.908l-.013-.013c-.156-.157-.306-.317-.45-.479l-.02-.023c-.446-.508-.828-1.041-1.152-1.597h-.009c-.661-1.135-1.065-2.375-1.211-3.72h.003c-.042-.382-.068-.77-.068-1.169 0-.554.042-1.091.122-1.612.297-1.929 1.143-3.635 2.538-5.119l.259-.269c1.947-1.938 4.289-2.909 7.028-2.909 2.312 0 4.367.704 6.162 2.11 1.776 1.407 2.942 3.197 3.5 5.371h-9.662v4.858h14.86v-1.261z"/><path d="M122.243 32.013h4.815v-3.72h-4.815z"/><path d="M97.884 32.013h4.847v-3.72h-4.847z"/><path d="M207.771 28.293v-1.106c0-1.129-.115-2.211-.336-3.249-.464-2.174-1.414-4.15-2.85-5.926-.363-.449-.753-.887-1.178-1.31-2.909-2.898-6.418-4.347-10.525-4.347-4.109 0-7.618 1.449-10.528 4.347-2.909 2.899-4.365 6.394-4.365 10.485l.004.121c.024 3.42 1.072 6.421 3.141 9.002l.08.1.437.512.125.143c.182.201.37.399.566.594l.013.013c.666.663 1.365 1.247 2.093 1.759 2.455 1.724 5.266 2.59 8.434 2.59v-4.924c-2.739 0-5.071-.969-6.997-2.909l-.004-.004c-.158-.157-.307-.317-.451-.48l-.062-.07c-.449-.515-.834-1.056-1.158-1.621h-.006c-.651-1.136-1.045-2.375-1.183-3.72h.004c-.038-.361-.061-.729-.061-1.106 0-2.728.973-5.051 2.921-6.969l.366-.352c1.853-1.703 4.063-2.557 6.631-2.557 2.737 0 5.081.971 7.028 2.909 1.947 1.918 2.919 4.241 2.919 6.969v14.641000000000002c0 .565-.054 1.117-.16 1.658-.284 1.434-.952 2.781-1.986 4.047-.136.166-.27.333-.419.496-.495.541-1.024 1.013-1.587 1.419-1.676 1.206-3.651 1.81-5.924 1.81v4.955c4.301 0 7.928-1.535 10.879-4.603 2.761-2.855 4.14-6.117 4.14-9.781v-13.536000000000001z"/><path d="M235.424 42.021c-4.002 0-7.424-1.45-10.269-4.348-2.846-2.878-4.27-6.361-4.27-10.453 0-4.071 1.424-7.555 4.27-10.453 2.845-2.898 6.267-4.349 10.269-4.349s7.425 1.45 10.271 4.349c2.844 2.898 4.268 6.382 4.268 10.453v14.258h-4.814v-14.258c0-2.728-.952-5.062-2.856-7.001-1.906-1.938-4.194-2.909-6.87-2.909-2.695 0-4.996.971-6.899 2.909-1.905 1.939-2.856 4.273-2.856 7.001 0 2.728.951 5.062 2.856 7 1.904 1.939 4.204 2.91 6.899 2.91v4.891z"/><path d="M212.45 41.407h4.628v-28.809h-4.628z"/></g></svg>