<svg width="220" height="41" viewBox="0 0 220 41" xmlns="http://www.w3.org/2000/svg"><title>logo@1,5x</title><desc>Created with Sketch.</desc><defs><linearGradient x1="12.1%" y1="33.388%" x2="90.906%" y2="66.071%" id="a"><stop stop-color="#fff" stop-opacity="0" offset="0%"/><stop stop-color="#fff" offset="100%"/></linearGradient><linearGradient x1="49.987%" y1="99.337%" x2="49.987%" y2="40.412%" id="b"><stop stop-color="#fff" stop-opacity="0" offset="0%"/><stop stop-color="#fff" offset="34.95%"/><stop stop-color="#fff" offset="73.27%"/><stop stop-color="#fff" offset="100%"/></linearGradient><linearGradient x1="49.99%" y1="-.139%" x2="49.99%" y2="80.765%" id="c"><stop stop-color="#0E2A8B" offset="0%"/><stop stop-color="#4288BD" offset="48.29%"/><stop stop-color="#438FC1" offset="92.62%"/></linearGradient><linearGradient x1="52.228%" y1="128.043%" x2="52.813%" y2="127.475%"><stop stop-color="#fff" stop-opacity=".99" offset="0%"/><stop stop-color="#fff" stop-opacity="0" offset="100%"/></linearGradient><linearGradient x1="40.285%" y1="54.158%" x2="75.979%" y2="6.178%" id="d"><stop stop-color="#fff" stop-opacity=".99" offset="0%"/><stop stop-color="#fff" stop-opacity="0" offset="100%"/></linearGradient><linearGradient x1=".002%" y1="50.016%" x2="100.003%" y2="50.016%" id="e"><stop stop-color="#fff" stop-opacity="0" offset="0%"/><stop stop-color="#fff" offset="27.18%"/><stop stop-color="#fff" offset="69.03%"/><stop stop-color="#fff" offset="100%"/></linearGradient><linearGradient x1="43.359%" y1="128.043%" x2="43.945%" y2="127.475%"><stop stop-color="#fff" stop-opacity=".99" offset="0%"/><stop stop-color="#fff" stop-opacity="0" offset="100%"/></linearGradient><linearGradient x1="40.28%" y1="54.158%" x2="75.976%" y2="6.178%" id="f"><stop stop-color="#fff" stop-opacity=".99" offset="0%"/><stop stop-color="#fff" stop-opacity="0" offset="100%"/></linearGradient><linearGradient x1="0%" y1="50.016%" y2="50.016%" id="g"><stop stop-color="#fff" stop-opacity="0" offset="0%"/><stop stop-color="#fff" offset="27.18%"/><stop stop-color="#fff" offset="69.03%"/><stop stop-color="#fff" offset="100%"/></linearGradient><linearGradient x1="50.016%" y1="98.564%" x2="50.016%" y2="-.155%" id="h"><stop stop-color="#fff" stop-opacity="0" offset="0%"/><stop stop-color="#fff" offset="21.62%"/><stop stop-color="#fff" offset="100%"/></linearGradient><linearGradient x1="28.557%" y1="71.319%" x2="83.255%" y2="3.537%" id="i"><stop stop-color="#fff" offset="53.91%"/><stop stop-color="#fff" stop-opacity="0" offset="100%"/></linearGradient><linearGradient x1="28.561%" y1="71.319%" x2="83.259%" y2="3.537%" id="j"><stop stop-color="#fff" offset="53.91%"/><stop stop-color="#fff" stop-opacity="0" offset="100%"/></linearGradient><linearGradient x1="41.024%" y1="39.364%" x2="67.902%" y2="100.419%" id="k"><stop stop-color="#fff" offset="0%"/><stop stop-color="#fff" stop-opacity=".9" offset="20.28%"/><stop stop-color="#fff" stop-opacity=".031" offset="100%"/></linearGradient><linearGradient x1="61.456%" y1="67.684%" x2="35.461%" y2="-1.977%" id="l"><stop stop-color="#fff" offset="0%"/><stop stop-color="#fff" stop-opacity=".9" offset="20.28%"/><stop stop-color="#fff" stop-opacity=".031" offset="100%"/></linearGradient></defs><g fill="none"><g id="Group"><g fill-rule="nonzero"><path d="M174.17 15.633v24.696h-3.64v-20.498l-.002-2.208v-.097l-.009-10.66h3.651v2.412l.122-.104c1.895-1.604 4.514-2.762 7.857-2.787 3.098 0 5.762 1.125 7.991 3.375l-2.124 2.542-.166-.172c-1.594-1.604-3.494-2.405-5.701-2.405-3.586 0-6.789 2.352-7.864 5.179-.079.208-.106.5-.115.727zm18.188 7.504c-.539 1.108-1.273 2.124-2.201 3.05-2.218 2.214-4.887 3.321-8.007 3.321l.434-3.412c2.095 0 3.884-.789 5.367-2.369.561-.598 1.018-1.244 1.369-1.937.578-1.14.874-2.409.888-3.807.022-2.216-.708-4.109-2.191-5.68l2.124-2.541c2.23 2.25 3.343 4.991 3.343 8.222 0 1.894-.375 3.611-1.126 5.153z" id="Combined-Shape" fill="#fff"/><path d="M182.15 29.507c-2.228 0-4.258-.467-6.085-1.4l1.437-3.088c1.605.719 3.299 1.077 5.082 1.077l-.434 3.41z" id="Shape" fill="url(#a)"/></g><path d="M108.378 15.87c0-.408-.155-.835-.155-.835h.001c-.425-1.21-1.126-2.292-2.028-3.171l.001-.001c-1.498-1.46-3.548-2.36-5.801-2.36h-.072l-.031-3.512h.101v3.512c-2.282 0-4.347.925-5.843 2.418l.001.001c-1.496 1.494-2.421 3.559-2.421 5.839v.072h-.001c.019 2.279.963 4.336 2.472 5.819l-2.464 2.506c-2.175-2.135-3.523-5.109-3.523-8.396h3.515v.072l-3.515.031-.001-.102c0-3.213 1.289-6.126 3.378-8.249l-.001-.001c2.116-2.151 5.052-3.492 8.301-3.52h.103c3.073 0 5.877 1.175 7.982 3.101v-2.225h3.644v8.937l.007.132v.686h-.004l-.003 12.39-3.64.026-.001-11.58h-.004v-1.586zm-1.487 18.672c1.058-1.424 1.436-3.372 1.496-5.505l3.641-.026-.011 1.339c-.139 2.195-.59 4.21-2.266 6.158-.222.254-.456.495-.702.722l.001.001c-2.345 2.178-5.057 3.012-8.355 3.012-2.356 0-4.5-.459-6.432-1.377-1.258-.573-2.308-1.298-3.161-2.17l2.769-1.936c.538.397 1.174.754 1.912 1.069 1.696.707 3.487 1.059 5.372 1.059 2.213 0 4.19-.695 5.738-2.347zm12.657-4.937h-3.644v-22.75h3.644v22.75z" id="Combined-Shape" fill="#fff" fill-rule="nonzero"/><path id="Rectangle-path" d="M26.814 16.932h3.547v12.404h-3.547z"/><path d="M30.36 9.222l-.596 7.38.596-.017c.321-2.557 3.058-7.054 7.895-7.054l.266.006v-3.545l-.262-.003c-3.089 0-5.868 1.235-7.898 3.234" fill-rule="nonzero" fill="#fff"/><path d="M38.36 5.988v3.544c3.419.055 6.207 2.77 6.207 6.271v1.165h3.546v-1.165c.001-5.446-4.374-9.761-9.753-9.815z" fill-rule="nonzero" fill="#fff"/><path id="Rectangle-path" fill="url(#b)" fill-rule="nonzero" d="M26.814 6.866h3.547v22.409h-3.547z"/><path id="Rectangle-path" fill="#fff" fill-rule="nonzero" d="M44.568 16.969h3.547v12.404h-3.547z"/><path d="M80.616 9.222v7.196c.021-.106.082-.105.089-.263.005-.113.033-.281.064-.393.772-2.771 3.266-6.231 7.741-6.231l.266.006v-3.545l-.262-.003c-3.088-.001-5.867 1.233-7.897 3.233" fill-rule="nonzero" fill="#fff"/><path id="Rectangle-path" fill="url(#c)" fill-rule="nonzero" d="M77.07 6.952h3.547v12.404h-3.547z"/><path d="M62.507 26.018v3.513c3.807 0 7.193-1.804 9.347-4.605l-2.789-2.139c-1.51 1.965-3.886 3.23-6.558 3.23" fill-rule="nonzero" fill="url(#d)"/><path d="M56.663 23.601c-1.495-1.494-2.421-3.558-2.421-5.84h.008c-.008-2.254.897-4.298 2.363-5.788 1.5-1.524 3.586-2.47 5.894-2.47 2.253 0 4.302.9 5.801 2.36l-.001.001c1.072 1.044 1.966 2.535 2.249 3.93l3.596.017c-.019-.214-.019-.305-.065-.515-.482-2.221-1.739-4.397-3.316-5.938-2.132-2.084-5.051-3.368-8.264-3.368h-.103c-3.212.027-6.118 1.339-8.228 3.447-2.132 2.13-3.45 5.073-3.45 8.323 0 3.287 1.348 6.26 3.523 8.396l.001-.001c2.126 2.087 5.041 3.375 8.258 3.375h.103l-.031-3.513h-.072c-2.282 0-4.349-.924-5.844-2.418l-.001.001z" id="Combined-Shape" fill-rule="nonzero" fill="#fff"/><path d="M55.616 15.73v3.512h18.521s.107-2.002.008-3.496l-18.529-.016z" id="Shape" fill="url(#e)" fill-rule="nonzero"/><path d="M11.962 26.018v3.513c3.807 0 7.193-1.804 9.347-4.605l-2.789-2.139c-1.512 1.965-3.886 3.23-6.558 3.23" fill-rule="nonzero" fill="url(#f)"/><g fill-rule="nonzero"><path d="M20.01 15.794c-.283-1.395-1.178-2.886-2.249-3.93l2.464-2.506c1.576 1.541 2.834 3.717 3.316 5.938.046.21.046.301.065.515l-3.596-.017z" fill="#fff"/><path d="M11.86 5.99l.031 3.512h.072c2.279 0 4.35.921 5.852 2.411l2.485-2.483c-2.138-2.126-5.087-3.441-8.337-3.441h-.103" fill="#fff"/><path d="M3.56 9.51l2.508 2.462c1.5-1.524 3.586-2.47 5.894-2.47v-3.512c-3.29 0-6.265 1.347-8.402 3.52" fill="#fff"/><path d="M.181 17.761l.001.103 3.515-.031v-.072c0-2.28.926-4.345 2.421-5.839l-2.486-2.484c-2.133 2.13-3.452 5.073-3.452 8.323" fill="#fff"/><path d="M.181 17.761c0 3.287 1.348 6.26 3.523 8.396l2.464-2.506c-1.525-1.498-2.472-3.583-2.472-5.89h-3.515z" fill="#fff"/><path d="M3.632 26.083c2.132 2.13 5.077 3.447 8.33 3.447h.103l-.031-3.513h-.072c-2.282 0-4.349-.924-5.844-2.418l-2.486 2.484z" fill="#fff"/><path d="M5.071 15.73v3.512h18.521s.107-2.002.008-3.496l-18.529-.016z" id="Shape" fill="url(#g)"/></g><path id="Shape" fill="url(#h)" fill-rule="nonzero" d="M80.712 29.605h-3.644v-22.739h3.644z"/><path fill="#fff" fill-rule="nonzero" d="M115.926.837h3.641v3.638h-3.641z"/><path d="M140.292 11.863c-1.498-1.46-3.548-2.36-5.801-2.36l-.001-.118v.118c-2.282 0-4.347.925-5.843 2.418l.001.001c-1.496 1.494-2.421 3.559-2.421 5.839v.072h-.001c.019 2.279.963 4.336 2.472 5.819l-2.464 2.506c-2.175-2.135-3.523-5.109-3.523-8.396h3.515v.072l-3.515.031-.001-.103c0-3.213 1.289-6.126 3.378-8.249l-.001-.001c2.138-2.173 5.114-3.52 8.402-3.52v.001l.001-.001c3.213 0 6.131 1.284 8.264 3.368 1.185 1.159 2.117 2.556 2.763 4.187.152.294.445 1.342.445 1.343l.158 1.149v.639h-.001v12.606h-3.644v-12.711l-.003-.502c0-.339-.071-.719-.176-1.085-.516-1.353-1.025-2.163-2.006-3.119l.001-.001z" id="Combined-Shape" fill-rule="nonzero" fill="#fff"/><path d="M139.144 24.587c-1.325.903-2.926 1.43-4.652 1.43-2.282 0-4.349-.924-5.844-2.418l-2.486 2.484c2.132 2.13 5.077 3.447 8.33 3.447h.103v-.002c2.366-.021 4.566-.737 6.404-1.954l-1.855-2.987z" id="Shape" fill="url(#i)" fill-rule="nonzero"/><path d="M213.18 11.863c-1.498-1.46-3.548-2.361-5.801-2.361-2.282 0-4.347.925-5.843 2.419-1.495 1.494-2.421 3.559-2.421 5.839v.072h-.001v-.072h-3.515c0 3.287 1.348 6.26 3.523 8.396l2.464-2.506c-1.509-1.482-2.453-3.54-2.472-5.819l-3.515.031-.001-.103c0-3.213 1.289-6.126 3.379-8.25 2.115-2.15 5.051-3.492 8.3-3.52h.103c3.25 0 6.199 1.314 8.337 3.441 1.156 1.154 2.184 2.762 2.771 4.285l.016.018c.186.453.301.87.375 1.224l.001.005c.136.646.131 1.074.13 1.075v.639h-.001v12.605h-3.644v-12.76l-.003-.651c0-.179-.04-.432-.073-.58-.408-1.342-1.127-2.47-2.109-3.427l.001-.001z" fill-rule="nonzero" fill="#fff"/><path d="M212.031 24.587c-1.325.903-2.926 1.43-4.652 1.43-2.282 0-4.349-.924-5.844-2.418l-2.486 2.484c2.132 2.13 5.077 3.447 8.33 3.447h.103v-.002c2.366-.021 4.566-.737 6.404-1.954l-1.855-2.987z" id="Shape" fill="url(#j)" fill-rule="nonzero"/><path d="M105.051 24.587c-1.325.903-2.926 1.43-4.652 1.43-2.282 0-4.349-.924-5.844-2.418l-2.486 2.484c2.132 2.13 5.077 3.447 8.33 3.447h.103v-.002c2.366-.021 4.566-.737 6.404-1.954l-1.855-2.987z" id="Shape" fill="url(#i)" fill-rule="nonzero"/></g><g fill-rule="nonzero"><path d="M158.319 29.548c2.965 0 4.939-1.192 6.01-2.165 1.54-1.4 2.225-2.898 2.225-4.725 0-2.044-1.073-4.267-3.227-5.237-.264-.118-2.646-.958-3.669-1.293-1.88-.614-3.147-1.079-3.147-1.079s-.506-.155-.677-.241l-.482-.22c-.931-.514-1.142-1.304-1.142-2.429 0-1.367 1.066-2.394 2.79-2.832 0 0 .551-.064 1.006-.089v-3.326h-.065c-1.227 0-2.604.395-2.604.395-2.756.937-4.598 2.826-4.598 6.134 0 1.905 1.051 3.775 2.421 4.866.802.679 2.405 1.149 3.233 1.401 1.136.345 1.755.509 2.939.863.741.222.986.325 1.63.543.766.26 1.223.531 1.63.987.326.364.642.975.519 1.925-.106.82-.41 1.435-1.277 2.124-.91.723-1.995 1.094-3.561 1.027l.047 3.369z" id="Shape" fill="#fff"/><path d="M158.001 9.243c1.465-.088 2.613.305 3.767 1.285.822.697 1.434 1.822 1.615 3.098l3.161-.962c-.445-2.147-1.151-3.496-2.841-4.935-1.584-1.35-3.406-1.89-5.703-1.812v3.326z" id="Shape" fill="url(#k)"/><path d="M158.319 29.548c-2.233 0-4.416-.922-5.809-2.313-1.315-1.314-2.213-2.517-2.732-4.54l3.251-.976c.192 1.041.722 2.109 1.648 2.961.991.911 2.032 1.43 3.596 1.498l.046 3.37z" fill="url(#l)"/></g></g></svg>