<svg width="16" height="20" viewBox="0 0 16 20" xmlns="http://www.w3.org/2000/svg"><title>Icn24/Password</title><desc>Created with Sketch.</desc><path d="M14.5 7h-1.5v-2.5c0-2.481-2.519-4.494-5-4.494s-5 2.013-5 4.494v2.5h-1.5c-.827 0-1.5.673-1.5 1.5v10c0 .827.673 1.5 1.5 1.5h13c.827 0 1.5-.673 1.5-1.5v-10c0-.827-.673-1.5-1.5-1.5zm-10.5-2.5c0-1.93 2.07-3.501 4-3.501 1.93 0 4 1.571 4 3.501v2.5h-8v-2.5zm11 14c0 .276-.224.5-.5.5h-13c-.276 0-.5-.224-.5-.5v-10c0-.276.224-.5.5-.5h13c.276 0 .5.224.5.5v10z" fill-rule="nonzero" fill="#444"/></svg>