<svg width="20" height="20" viewBox="0 0 20 20" xmlns="http://www.w3.org/2000/svg"><title>Icn24/PDF_inactive</title><desc>Created with Sketch.</desc><g fill="#BBBBBA"><path d="M19.967 7.837l-.113-.19-1.854-1.854v-1.793l-.032-.16-.115-.194-4.5-3.5-.147-.098-.177-.042-10.529-.006c-.276 0-.5.224-.5.5v5.293l-1.853 1.853-.097.144-.043.179c0 .007-.003 2.851-.006 8.531 0 .276.224.5.5.5h1.5v2.5c0 .276.224.5.5.5h15c.276 0 .5-.224.5-.5v-2.5h1.5c.276 0 .5-.224.5-.5v-8.5l-.033-.163zm-.967.163v1h-1v-2l1 1zm-2-4h-4v-2.98l4 2.98zm-14-3l9.01-.016v3.003c.045.654.48 1.003.977 1.003h4.051l-.039 3.481v.529h-14v-8zm-1 6v2h-1v-1l1-1zm15 12h-14v-2h14v2zm2-3h-18v-6h18v6z" fill-rule="nonzero"/><path d="M5.68 11c.742 0 1.323.394 1.325 1.424.002 1.03-.473 1.576-1.192 1.576h-.814v1h-1v-4h1.68zm-.232 2c.214 0 .359-.045.436-.134.077-.089.116-.22.116-.393 0-.173-.049-.295-.147-.366-.098-.071-.252-.107-.461-.107h-.392v1h.448zm4.81-2c.57 0 1.007.175 1.313.524.306.349.428.855.428 1.476 0 .622-.117 1.094-.414 1.456-.297.362-.751.544-1.363.544h-1.228v-4h1.264zm.742 2.002c0-.668-.233-1.002-.7-1.002h-.3v2h.333c.215 0 .38-.084.495-.253.115-.168.172-.417.172-.745zm4.003-.996v.994h1.004v.998h-1.004v1.002h-1.006v-4h3.002v1.006h-1.996z"/></g></svg>