<?xml version="1.0" encoding="UTF-8"?>
<svg width="20px" height="20px" viewBox="0 0 20 20" version="1.1" xmlns="http://www.w3.org/2000/svg" xmlns:xlink="http://www.w3.org/1999/xlink">
    <!-- Generator: Sketch 47.1 (45422) - http://www.bohemiancoding.com/sketch -->
    <title>Icn24/PDF</title>
    <desc>Created with Sketch.</desc>
    <defs></defs>
    <g id="Symbols" stroke="none" stroke-width="1" fill="none" fill-rule="evenodd">
        <g id="Icn24/PDF" transform="translate(-2.000000, -2.000000)" fill="#005FC5">
            <g>
                <path d="M21.9670375,9.83705 C21.9262375,9.7383 21.8958375,9.6892 21.8540875,9.6473 C21.8538875,9.64706667 21.2358583,9.02895 20,7.79295 L20,6 C19.9909375,5.9244 19.9823875,5.88195 19.9681375,5.84005 C19.9270375,5.7398 19.8963875,5.68935 19.8535,5.6465 L15.3535,2.1465 C15.3104375,2.1034 15.2597875,2.07265 15.2065,2.0482 C15.1182875,2.0172 15.0745875,2.00855 15.0291375,2.0058 C15.0224708,2.0054 11.5127583,2.00346667 4.5,2 C4.2238875,2 4,2.2239 4,2.5 L4,7.79295 L2.1466375,9.64635 C2.1041375,9.6892 2.0737375,9.7383 2.0496375,9.79005 C2.0179375,9.88 2.0090375,9.9237 2.0062375,9.9691 C2.00574583,9.9763 2.00366667,12.8199333 2,18.5 C2,18.7761 2.2238875,19 2.5,19 L4,19 L4,21.5 C4,21.7761 4.2238875,22 4.5,22 L19.5,22 C19.7760875,22 20,21.7761 20,21.5 L20,19 L21.5,19 C21.7760875,19 22,18.7761 22,18.5 L22,10 C21.9909375,9.9237 21.9820375,9.88 21.9670375,9.83705 Z M21,10 L21,11 L20,11 L20,10 L20,9 L21,10 Z M19,6 L15,6 L15,3.01953125 L19,6 Z M5,3 L14.0103934,2.98397904 L14.0103934,5.98699079 C14.055385,6.64146205 14.4905483,6.98982816 14.9872001,6.98982816 L19.038644,6.98982816 L19,10.4705882 L19,11 L5,11 L5,10.4705882 L5,3 Z M4,9 L4,10 L4,11 L3,11 L3,10 L4,9 Z M19,21 L5,21 L5,19 L19,19 L19,21 Z M21,18 L3,18 L3,12 L4.5,12 L19.5,12 L21,12 L21,18 Z" id="Shape" fill-rule="nonzero"></path>
                <path d="M7.68,13 C8.42200371,13 9.00282288,13.3943939 9.00500488,14.4241638 C9.00718689,15.4539337 8.53205527,15.9997711 7.81338501,15.9997711 L6.99972534,15.9997711 L6.99972534,17 L6,17 L6,13 L7.68,13 Z M7.44771242,15 C7.66122111,15 7.80664449,14.9553576 7.88398693,14.8660714 C7.96132936,14.7767853 8,14.6458342 8,14.4732143 C8,14.3005944 7.95098088,14.1785718 7.85294118,14.1071429 C7.75490147,14.0357139 7.60130824,14 7.39215686,14 L7,14 L7,15 L7.44771242,15 Z M12.257631,13 C12.8271727,13 13.2649256,13.1745333 13.5709028,13.5236052 C13.87688,13.872677 13.9987257,14.3781562 13.9987257,15 C13.9987257,15.6218438 13.8814242,16.0939419 13.5845354,16.4563662 C13.2876466,16.8187906 12.8332319,17 12.2212775,17 L10.9937134,17 L10.9937134,13 L12.257631,13 Z M13,15.0020877 C13,14.3340259 12.7667538,14 12.3002545,14 L12,14 L12,16 L12.3333333,16 C12.5487712,16 12.7137399,15.9157976 12.8282443,15.7473904 C12.9427487,15.5789832 13,15.3305514 13,15.0020877 Z M17.0032043,14.0057678 L17.0032043,15 L18.0070343,15 L18.0070343,15.9975739 L17.0032043,15.9975739 L17.0032043,17 L15.9976044,17 L15.9976044,13 L18.9994812,13 L18.9994812,14.0057678 L17.0032043,14.0057678 Z" id="PDF"></path>
            </g>
        </g>
    </g>
</svg>