<svg width="20" height="22" viewBox="0 0 20 22" xmlns="http://www.w3.org/2000/svg"><title>Icn24/User</title><desc>Created with Sketch.</desc><g fill-rule="nonzero" fill="#444"><path d="M10 12c-3.309 0-6-2.691-6-6s2.691-6 6-6 6 2.691 6 6-2.691 6-6 6zm0-11c-2.757 0-5 2.243-5 5s2.243 5 5 5 5-2.243 5-5-2.243-5-5-5zM18.421 22h-16.842c-.871 0-1.579-.673-1.579-1.5 0-.068.015-1.685 1.289-3.3.742-.94 1.758-1.687 3.02-2.219 1.541-.651 3.456-.981 5.691-.981s4.149.33 5.691.981c1.262.533 2.278 1.279 3.02 2.219 1.275 1.615 1.289 3.232 1.289 3.3 0 .827-.708 1.5-1.579 1.5zm-8.421-7c-3.671 0-6.379.953-7.833 2.756-1.089 1.351-1.114 2.732-1.115 2.746 0 .274.236.498.526.498h16.842c.291 0 .526-.224.526-.5 0-.012-.024-1.393-1.115-2.744-1.455-1.803-4.163-2.756-7.833-2.756z"/></g></svg>